/* XPM */
static char *_649_ebc251fbae5fe1df8ec030603a45b973dafe00c053872f054e98133a1b5b888a[] = {
/* columns rows colors chars-per-pixel */
"128 127 37 1 ",
"  c #051D29",
". c #05242C",
"X c #052B2F",
"o c #052E30",
"O c #043433",
"+ c #043B36",
"@ c #043F38",
"# c #04443A",
"$ c #044B3D",
"% c #03503F",
"& c #045441",
"* c #035C45",
"= c #036147",
"- c #036549",
"; c #036C4C",
": c #03724E",
"> c #027650",
", c #027C53",
"< c #028356",
"1 c #028658",
"2 c #028B5A",
"3 c #01945E",
"4 c #019C61",
"5 c #01A465",
"6 c #01A967",
"7 c #01AC69",
"8 c #01B46C",
"9 c #00B96F",
"0 c #00BD71",
"q c #00C373",
"w c #00CA76",
"e c #00CE78",
"r c #00D37A",
"t c #00D97D",
"y c #00E381",
"u c #00ED86",
"i c None",
/* pixels */
"iiiiiiiiiiiiiiiiiiiiiiiiiiiiiiiiiiiiiiiiiiiiiiiiiiiiiiiiiiiiiiiiiiiiiiiiiiiiiiiiiiiiiiiiiiiiiiiiiiiiiiiiiiiiiiiiiiiiiiiiiiiiiiii",
"iiiiiiiiiiiiiiiiiiiiiiiiiiiiiiiiiiiiiiiiiiiiiiiiiiiiiiiiiiiiiiiiiiiiiiiiiiiiiiiiiiiiiiiiiiiiiiiiiiiiiiiiiiiiiiiiiiiiiiiiiiiiiiii",
"iiiiiiiiiiiiiiiiiiiiiiiiiiiiiiiiiiiiiiiiiiiiiiiiiiiiiiiiiiiiiiiiiiiiiiiiiiiiiiiiiiiiiiiiiiiiiiiiiiiiiiiiiiiiiiiiiiiiiiiiiiiiiiii",
"iiiiiiiiiiiiiiiiiiiiiiiiiiiiiiiiiiiiiiiiiiiiiiiiiiiiiiiiiiiiiiiiiiiiiiiiiiiiiiiiiiiiiiiiiiiiiiiiiiiiiiiiiiiiiiiiiiiiiiiiiiiiiiii",
"iiiiiiiiiiiiiiiiiiiiiiiiiiiiiiiiiiiiiiiiiiiiiiiiiiiiiiiiiiiiiiiiiiiiiiiiiiiiiiiiiiiiiiiiiiiiiiiiiiiiiiiiiiiiiiiiiiiiiiiiiiiiiiii",
"iiiiiiiiiiiiiiiiiiiiiiiiiiiiiiiiiiiiiiiiiiiiiiiiiiiiiiiiqqqqqqqqqqqqqqqqiiiiiiiiiiiiiiiiiiiiiiiiiiiiiiiiiiiiiiiiiiiiiiiiiiiiiiii",
"iiiiiiiiiiiiiiiiiiiiiiiiiiiiiiiiiiiiiiiiiiiiiiiiiiqqqqqqqqqqqqqqqqqqqqqqqqqqqiiiiiiiiiiiiiiiiiiiiiiiiiiiiiiiiiiiiiiiii##iiiiiiii",
"iiiiiiiiiiiiiiiiiiiiiiiiiiiiiiiiiiiiiiiiiiiiiiiqqqqqqqqqqqqqqqqqqqqqqqqqqqqqqqqqqiiiiiiiiiiiiiiiiiiiiiiiiiiiiiiiii######iiiiiiii",
"iiiiiiiiiiiiiiiiiiiiiiiiiiiiiiiiiiiiiiiiiiiiqqqqqqqqqqqqqqqqqqqqqqqqqqqqqqqqqqqqqqqqiiiiiiiiiiiiiiiiiiiiiiiii##########iiiiiiiii",
"iiiiiiiiiiiiiiiiiiiiiiiiiiiiiiiiiiiiiiiiiqqqqqqqqqqqqqqqqqqqqqqqqqqqqqqqqqqqqqqqqqqqqqiiiiiiiiiiiiiiiiii#####$########iiiiiiiiii",
"iiiiiiiiiiiiiiiiiiiiiiiiiiiiiiiiiiiiiiiqqqqqqqqqqqqqqqqqqqqqqqqqqqqqqqqqqqqqqqqqqqqqq0qqwiiiiiiiiii##################iiiiiiiiiii",
"iiiiiiiiiiiiiiiiiiiiiiiiiiiiiiiiiiiiiqqqqqqqqqqqqqqqqqqqqqqqqqqqqqqqqqqqqqqqqqqqqqqqqwwerttiiii#####################iiiiiiiiiiii",
"iiiiiiiiiiiiiiiiiiiiiiiiiiiiiiiiiiiqqqqqqqqqqqqqqqqqqqqqqqqqqqqqqqqqqqqqqqqqqqqqqwwrrrq851:%#######################iiiiiiiiiiiii",
"iiiiiiiiiiiiiiiiiiiiiiiiiiiiiiiiiqqqqqqqqqqqqqqqqqqqqqqqqqqqqqqqqqqqqqqqqqqqwwrrrw952;&#+OO+#######################iiiiiiiiiiiii",
"iiiiiiiiiiiiiiiiiiiiiiiiiiiiiiiiqqqqqqqqqqqqqqqqqqqqqqqqqqqqqqqqqqqqqqqwwrrtw863:*#+OOO###########################iiiiiiiiiiiiii",
"iiiiiiiiiiiiiiiiiiiiiiiiiiiiiiqqqqqqqqqqqqqqqqqqqqqqqqqqqqqqqqqqqqqwrrrw973,*$@OOO+##############################iiiiiiiiiiiiiii",
"iiiiiiiiiiiiiiiiiiiiiiiiiiiiiqqqqqqqqqqqqqqqqqqqqqqqqqqqqqqqqqqqqwr074,-$++OO+##################################iiiiiiiiiiiiiiii",
"iiiiiiiiiiiiiiiiiiiiiiiiiiiiqqqqqqqqqqqqqqqqqqqqqq0qqqqqqqqqqqqqe5&$++OO+######################################iiiiiiiiiiiiiiiii",
"iiiiiiiiiiiiiiiiiiiiiiiiiiqqqqqqq0qqqqqqqqqqqqqqqqqqqqqqqqqqqqqqw0&.@##########################################iiiiiiiiiiiiiiiii",
"iiiiiiiiiiiiiiiiiiiiiiiiiqqqqqqqqqqqqqqqqqqqqqqqqqqqqqqqqqqqqqqqqer-o#########################################iiiiiiiiiiiiiiiiii",
"iiiiiiiiiiiiiiiiiiiiiiiiqqqqqqqqqqqqqqqqqqqqqqqqqqqqqqqqqqqqqqqqqqew*O#######################################iiiiiiiiiiiiiiiiiii",
"iiiiiiiiiiiiiiiiiiiiiiiqqqqqqqqqqqqqqqqqqqqqqqqqqqqqqqqqqqqqqqqqqqqeq*o#####################################iiiiiiiiiiiiiiiiiiii",
"iiiiiiiiiiiiiiiiiiiiiiqqqqqqqqqqqqqqqqqqqqqqqqqqqqqqqqqqqqqqqqqqqqqqre-+##################################+iiiiiiiiiiiiiiiiiiiii",
"iiiiiiiiiiiiiiiiiiiiiqqqqqqqqqqqqqqqqqqqqqqqqqqqqqqqqqqqqqqqqqqwwerrrr8&#################################O:iiiiiiiiiiiiiiiiiiiii",
"iiiiiiiiiiiiiiiiiiiiqqqqqqqqqqqqqqqqqqqqqqqqqqqqqqqqqqqqqqwerrre9642:*&$################################O-riiiiiiiiiiiiiiiiiiiii",
"iiiiiiiiiiiiiiiiiiiqqqqqqqqqqqqqqqqqqqqqqqqqqqqqqqqqwwrerrq743,-&#+OOO+################################+$qeqiiiiiiiiiiiiiiiiiiii",
"iiiiiiiiiiiiiiiiiiiqqqqqqqqqqqqqqqqqqqqqqqqqqqwwerrrw052<;*#+OOO+#####################################++8rqqqiiiiiiiiiiiiiiiiiii",
"iiiiiiiiiiiiiiiiiiqqqqqqqqqqqqqqqqqqqqqqqwwrrew9731>*$+OOO+@#########################################@O4rqqqqqiiiiiiiiiiiiiiiiii",
"iiiiiiiiiiiiiiiiiqqqqqqqqqqqqqqqqqqqwrrreq741,;&@+OOO@###############################################O<rw0qqqqqiiiiiiiiiiiiiiiii",
"iiiiiiiiiiiiiiiiqqqqqqqqqqqqqqwerrrw8521;*#+OOO+####################################################O-rwqqqqqqqiiiiiiiiiiiiiiiii",
"iiiiiiiiiiiiiiiiqqqqqqqq0wrrrw9731>*$+OOOO#########################################################O&qeqqqqqqqqqiiiiiiiiiiiiiiii",
"iiiiiiiiiiiiiiiqqqqqqqqqw841,-$#O+OO+#########################################################=###+#8r0qqqqqqqqqwiiiiiiiiiiiiiii",
"iiiiiiiiiiiiiiqqqqqqqqqqr1oOOO@##############################################+OO#$##########O1;O#+O5rqqqqqqqqqqqqiiiiiiiiiiiiiii",
"iiiiiiiiiiiiiiqqqqqqqqqqr4+##############################################@OO+$;4,+#########O;6###O1rqqqqqqqqqqqqqqiiiiiiiiiiiiii",
"iiiiiiiiiiiiiqqqqqqqqqqqe8$+##########################################OO+#-<49y8#+########+#q,o#o;rwqqqqqqqqqqqqqqiiiiiiiiiiiiii",
"iiiiiiiiiiiiqqqqqqqqqqqqww=O######################################OOO#*,38wrrt9#O#########o4e$@O*wwqqqqqqqqqqqqqqqqiiiiiiiiiiiii",
"iiiiiiiiiiiiqqqqqqqqqqqq0r,O##############$###################+OO@*,37wrrew0ww&O$########O;y2O+$9eqqqqqqqqqqqqqqqqqqiiiiiiiiiiii",
"iiiiiiiiiiiqqqqqqqq0qqqqqr2O##############################+OO+&:35qrrewqqqqwr;o#########O$qt*o+5tqqqqqqqqqqqqqqqqqqqiiiiiiiiiiii",
"iiiiiiiiiiiqqqqqqqqqqqqqqr5+##########################+OO+$;250rrrw0qqqqqqqt1O#########@O5y7@o2rqqqqqqqqqqqqqqqqqqqqqiiiiiiiiiii",
"iiiiiiiiiiiqqqqqqqqqqqqqqw8&+######################OO+#-158errwqqqqqqqqqqqt4O+#########o<rt, >twqqqqqqqq0qqqqqqqqqqqqiiiiiiiiiii",
"iiiiiiiiiiqqqqqqqqqqqqqqqqe-O#################@OOO#*,48wrrwqqqqqqqqqqqqqqr8++########$O*wrw#&weqqqqqqqqqqqqqqqqqqqqqqiiiiiiiiiii",
"iiiiiiiiiiqqqqqqqqqqqqqqqqr,O##############+OO@*,37wrreqqqqqqqqqqqqqqqqqew&O#########+@8ee1@0r0qqqqqqqqqqqqqqqqqqqqqqqiiiiiiiiii",
"iiiiiiiiiqqqqqqqqqqqqqqqqqr3+##########+OO+%:36qrrwwwqqqqqqqqqqqqqqqqq0wr-o##########o3tww*3tqqqqqqqqqqqqqqqqqqqqqqqqqiiiiiiiiii",
"iiiiiiiiiqqqqqqqqqqqqqqqqqr5+######@OO+$;25qrrewqqqqqqqqqqqqqqqqqqqqq0wt1o##########X;rww73wqqqqqqqqqqqqqqqqqqqqqqqqqqqiiiiiiiii",
"iiiiiiiiiqqqqqqqqqqqqqqqqqw0&+#@OO+#=158rrewqqqqqqqqqqqqqqqqqqqqqqqqq0t4O@#########O$qrqq0wwqqqqqqqqqqqqqqqqqqqqqqqqqqqiiiiiiiii",
"iiiiiiiiqqqqqqqqqqqqqqqqqqqr- O#*,48errwwqqqqqqqqqqqqqqqqqqqqqqqqqqqqt8@O$########@O5rqqqqqqqqqqqqqqqqqqqqqqqqqqqqqqqqqiiiiiiiii",
"iiiiiiiiqqqqqqqqqqqqqqqqqqqe1;48wrrew0qq0qqqqqqqqqqqqqqqqqqqqqqqqqq0ew$O##########o<tqqqqqqqqqqqqqqqqqqqqqqqqqqqqqqqqqqqiiiiiiii",
"iiiiiiiiqqqqqqqqqqqqqqqqqqqqwrrwwqqwqqqqqqqqqqqqqqqqqqqqqqqqqqqqqqqwr=O##########O*ewqqqqqqqqqqqqqqqqqqqqqqqqqqqqqqqqqqqiiiiiiii",
"iiiiiiiqqqqqqqqqqqqqqqqqqqqqwqqq0qqqqqqqqqqq0qqqqqqqqqqqqqqqqqqqqqqt,X##########+@8rqqqqqqqqqqqqqqqqqqqqqqqqqqqqqqqqqqqqiiiiiiii",
"iiiiiiiqqqqqqqqqqqqqqqqqqqqqqqqqqqqqqqqqqqqqqqqqqqqqqqqqqqqqqqqqqqt4O###########O3tqqqqqqqqqqqqqqqqqqqqqqqqqqqqqqqqqqqqqiiiiiiii",
"iiiiiiiqqqqqqqqqqqqqqqqqqqqqqqqqqqqqqqqqqqqqqqqqqqqqqqqqqqqqqqqqqt8++##########O;rwqqqqqqqqqqqqqqqqqqqqqqqqqqqqqqqqqqqqqqiiiiiii",
"iiiiiiiqqqqqqqqqqqqqqqqqqqq0qqqqqqqqqqqqqqqqqqqqqqqqqqqqqqqqqqqqrq#O##########+$qe0qqqqqqqqqqqqqqqqqqqqqqqqqqqqqqqqqqqqqqiiiiiii",
"iiiiiiqqqqqqqqqq0qqqqqqqqqqqqqqqqqqqqqqqqqqqqqqqqqqqqqqqqqqqqqqww=X###########+$8ewqqqqqqqqqqqqqqqqqqqqqqqqqqqqqqqqqqqqqqiiiiiii",
"iiiiiiqqqqqqqqqqqqqqqqqqqqqqqqqqqqqqqqqqqqqqqqqqqqqqqqqqqqqqqqwt,X#############O1rqqqqqqqqqqqqqqqqqqqqqqqqq0qqqqqqqqqqqqqiiiiiii",
"iiiiiiqqqqqqqqqqqqqqqqqqqqqqqqqqqqqqqqqqqqqqqqqqqqqqqqqqqqqqqqt3O##############O>rqqqqqqqqqqqqqqqqqqqqqqqqqqqqqqqqqqqqqqqiiiiiii",
"iiiiiiqqqqqqqqqqqqqqqqqqqqqqqqqqqqqqqqqqqqqqqqqqqqqqqqqqqqqqqr7+O##############O&qwqqqqqqqqqqqqqqqqqqqqqqqqqqqqqqqqqqqqqqqiiiiii",
"iiiiiiqqqqqqqqqqqqqqqqqqqqqqqqqqqqqqqqqqqqqqqqqqqqqqqqqqqqq0rq#O################@5rqqqqqqqqqqqqqqqqqqqqqqqqqqqqqqqqqqqqqqqiiiiii",
"iiiiiiqqqqqqqqqqqqqqqqqqqqqqqqqqqqqqqqqqqqqqqqqqqqqqqqqqqqqer*O#################O1tqqqqqqqqqqqqqqqqqqqqqqqqqqqqqqqqqqqqqqqiiiiii",
"iiiiiqqqqqqqqqqqqqqqqqqqqqqqqqqqqqqqqqqqqqqqqqqqqqqqqqqqqqwt>X##################o;ewqqqqqqqq0qqqqqqqqqqqqqqqqqqqqqqqqqqqqqiiiiii",
"iiiiiqqqqqqqqqqqqqqqqqqqqqqqqqqqqqq0qqqqqqqqqqqqqqqqqqqqqqt2o###########+O+OOooOO#0wqqqqqqqqqqqqqqqqqqqqqqqqqqqqqqqqqqqqqqiiiiii",
"iiiiiqqqqqqqqqqqqqqqqqqqqqqqqqqqqqqqqqqqqqqqqqqqqqqqqqqqqt7O+##########+%*=;:,23450qqqqqqqqqqqqqqqqqqqqqqqqqqqqqqqqqqqqqqqiiiiii",
"iiiiiqqqqqqqqqqqqqqqqqqqqqqqqqqqqqqqqqqqqqqqqqqqqqqqqqqqrq#O$#########o-wqwwrrtrreqqqqqqqqqqqqqqqqqqqqqqqqqqqqqqqqqqqqqqqqiiiiii",
"iiiiiqqqqqqqqqqqqqqqqqqqqqqqqqqqqqqqqqqqqqqqqqqqqqqqqqqwe*o##########O#9twwqqqqqqqwwqqqqqqqqqqqqqqqqqqqqqqqqqqqqqqqqqqqqqqiiiiii",
"iiiiiqqqqqqqqqqqqqqqqqqqqqqqqqqqqqqqqqqqqqqqqqqqqqqqq0wt>X###########O3tqqqqqwwertwqqqqqqqqqqqqqqqqqqqqqqqqqqqqqqqqqqqqqqqiiiiii",
"iiiiiqqqqqqqqqqqqqqqqqqqqqqqqqqqqqqqqqqqqqqqqqqqqqqqqwt3o##########$o;rwwwertrq741*,eqqqqqqqqqqqqqqqqqqqqqqqqqqqqqqqqqqqqqiiiiii",
"iiiiiqqqqqqqqqqqqqqqqqqqqqqqqqqqqqqqqqqqqqqqqqqqqqqq0t5O+##########O$wyrr0741;&#+o.$qwqqqqqqqqqqqqqqqqqqqqqqqqqqqqqqqqqqqqiiiiii",
"iiiiiqqqqqqqqqqqqqqqqqqqqqqqqqqqqqqqqqqqqqqqqqqqqqq0r0#O############5q42;&#+OO++##@@5rqqqqqqqqqqqqqqqqqqqqqqqqqqqqqqqqqqqqiiiiii",
"iiiiiqqqqqqqqqqqqqqqqqqqqqqqqqqqqqqqqqqqqqqqqqqqqqqee*o$###########$-#+OOO+########O3tqqqqqqqqqqqqqqqqqqqqqqqqqqqqqqqqqqqqiiiiii",
"iiiiiqqqqqqqqqqqqqqqqqqqqqqqqqqqqqqqqqqqqqqqqqqqqqwr>.##############O+#############O<rqqqqqqqqqqqqqqqqqqqqqqqqqqqqqqqqqqqqiiiiii",
"iiiiiiqqqqqqqqqqqqqqqqqqqqqqqqqqqqqqqqqqqqqqqqqqqqt2o##############################O&qwqqqqqqqqqqqqqqqqqqqqqqqqqqqqqqqqqqqiiiiii",
"iiiiiiqqqqqqqqqqqqqqqqqqqqqqqqqqqqqqqqqqqqqqqqqqqt6O+###########################+OoO&qeqqqqqqqqqqqqqqqqqqqqqqqqqqqqqqqqqqqiiiiii",
"iiiiiiqqqqqqqqqqqqqqqqqqqqqqqqqqqqqqqqqqqqqqqqqqr0#O########################+OoO$=,59qqqqqqqqqqqqqqqqqqqqqqqqqqqqqqqqqqqqiiiiiii",
"iiiiiiqqqqqqqqqqqqqqqqqqqqqqqqqqqqqqqqqqqqqqqqqww*O#####################++OO#=>49errwqqqqqqqqqqqqerqqqqqqqqqqqqqqqqqqqqqqiiiiiii",
"iiiiiiqqqqqqqqqqqqqqqqqqqqqqqqqqqqqqqqqqqqqqqqwr:.##################@OOO#*:38wrreqweteqqqqqqqqerr849qqqqqqqqqqqqqqqqqqqqqiiiiiii",
"iiiiiiiqqqqqqqqqqqqqqqqqqqqqqqqqqqqqqqqqqqqqqqt2O###############@OOO#&:28wrrwwwqete82-6rqqwrte73;#O7eqqqqqqqqqqqqqqqqqqqqiiiiiii",
"iiiiiiiqqqqqqqqqqqqqqqqqqqqqqqqqqqqqqqqqqqqq0t5O+############+Oo#&:27wrrewqqqrrr82-#O.3trrq51-#OO+@5rqqqqqqqqqqqqqqqqqqqqiiiiiii",
"iiiiiiiqqqqqqqqqqqqqqqqqqqqqqqqqqqqqqqqqqqqqr8#+###########+O&;16qrrrqqqqqrrr72;#OO+#O3r4,&#OO@###O3rqqqqqqqqqqqqqqqqqqqqiiiiiii",
"iiiiiiiqqqqqqqqqqqqqqqqqqqqqqqqqqqqqqqqqqqqww&O###########+#4wrtrwqqqqwrte72-#oO@#####&%OOO#######+1rqqqqqqqqqqqqqqqqqqqiiiiiiii",
"iiiiiiiqqqqqqqqqqqqqq9qqqqqqqqqqqqqqqqqqqqwr;o###########@o3ywqqqqqwrre72-#OO+########++##########O>rqqqqqqqqqqqqqqqqqqqiiiiiiii",
"iiiiiiiiqqqqqqqqqqqqqqqqqqqqqqqqqqqqww9qqwr2o############o>twqqqqete71=@OO+#######################O-wqqqqqqqqqqqqqqqqqqqiiiiiiii",
"iiiiiiiiqqqqqqqqqqqqqqqqqqqqqqqqqqqw74wqqt4O+###########O&weqwete71=@oO@##########################@&qqqqqqqqqqqqqqqqqqqiiiiiiiii",
"iiiiiiiiqqqqqqqqqqqqqqqqqqqqqqqqqqqw;4eqr8#+###########O#8trte51=@oO##############################@$8wqqqqqqqqqqqqqqqqqiiiiiiiii",
"iiiiiiiiiqqqqqqqqqqqqqqqqqqqqqqqqqt1;rqww&O############O5uw5<*@OO#################################@#8eqqqqqqqqqqqqqqqqqiiiiiiiii",
"iiiiiiiiiqqqqqqqqqqqqqqqqqqqqqqqqr9#3rwr;X############+201=+oO####################################@#6rqqqqqqqqqqqqqqqqiiiiiiiiii",
"iiiiiiiiiqqqqqqqqqqqqqqqqqqqqqqqqr-+qwt1O##############;#oO########################################O4rqqqqqqqqqqqqqqqqiiiiiiiiii",
"iiiiiiiiiiqqqqqqqqqqqqqqqqqqqqqqt3.:rt4O+##############+@##########################################O2rqqqqqqqqqqqqqqqqiiiiiiiiii",
"iiiiiiiiiiqqqqqqqqqqqqqqqqqqqqqe0$.3y8@+###########################################################O<rqqqqqqqqqqqqqqqiiiiiiiiiii",
"iiiiiiiiiiiqqqqqqqqqqqqqqqqqqqqe;X+8r%O############################################################O-eqqqqqqqqqqqqqqqiiiiiiiiiii",
"iiiiiiiiiiiqqqqqqqqqqqqqqqqqqqt3O+&q:O$############################################################O=wqqqqqqqqqqqqqqiiiiiiiiiiii",
"iiiiiiiiiiiiqqqqqqqqqqqqqqqqqe9#+O:1O#############################################################Oo#9eqqqqqqqqqqqqqiiiiiiiiiiii",
"iiiiiiiiiiiiqqqqqqqqqqqqqqqqwe-o##$#+#########################################################O+O#&>3qqqqqqqqqqqqqqiiiiiiiiiiiii",
"iiiiiiiiiiiiiqqqqqqqqqqqqqqqr3o###########################################################O+O#*>37qrrqqqqqqqqqqqqqqiiiiiiiiiiiii",
"iiiiiiiiiiiiiqqqqqqqqqqqqqqe8#+####################$##################################OOO#*,37qrrewqqqqqqqqqqqqqqqiiiiiiiiiiiiii",
"iiiiiiiiiiiiiiqqqqqqqqqqqqwe=o####################################################OOO#*,37qrrrqqqqqqqqqqqqqqqqqqqqiiiiiiiiiiiiii",
"iiiiiiiiiiiiiiiqqqqqqqqqqqt1o################################################@OO@#*,37wrrrqqqqqqqqqqqqqqqqqqqqqqqiiiiiiiiiiiiiii",
"iiiiiiiiiiiiiiiqqqqqqqqqqr7+##############################################OO@#*<48qrrrqqqqqqqqqqqqqqqqqqqqqqqqqqiiiiiiiiiiiiiiii",
"iiiiiiiiiiiiiiiiqqqqqqqqww*O#########################################@OO+#*,58qrreqqqqqqqqqqqqqqqqqqqqqqqqqqqqqqiiiiiiiiiiiiiiii",
"iiiiiiiiiiiiiiiiiqqqqqqqt<O######################################@OO+$*<58wrrrqqqqqqqqqqqqqqqqqqqqqqqqqqqqqqqqqiiiiiiiiiiiiiiiii",
"iiiiiiiiiiiiiiiiiqqqqqqr7++##################################+OO+#*<58wrreqqqqqqqqqqqqqqqqqqqqqqqqqqqqqqqqqqqqiiiiiiiiiiiiiiiiii",
"iiiiiiiiiiiiiiiiiiqqqqww&O###############################+OO+$=<58wrrwqqqqqqqqqqqqqqqqqqqqqqqqqqqqqqqqqqqqqqqiiiiiiiiiiiiiiiiiii",
"iiiiiiiiiiiiiiiiiiiqqqr<o############################@OO@$-158wrreqqqqqqqqqqqqqqqqqqqqqqqqqqqqqqqqqqqqqqqqqqqiiiiiiiiiiiiiiiiiii",
"iiiiiiiiiiiiiiiiiiiiqr7+@########################@OO@$-158wrrwwqqqqqqqqqqqqqqqqqqqqqqqqqqqqqqqqqqqqqqqqqqqqqiiiiiiiiiiiiiiiiiiii",
"iiiiiiiiiiiiiiiiiiiiiw*O#####################+OO+$-168wrrwqqqqqqqqqqqqqqqqqqqqqqqqqqqqqqqqqqqqqqqqqqqqqqqqqiiiiiiiiiiiiiiiiiiiii",
"iiiiiiiiiiiiiiiiiiiii*+##################+OO@$-250wtewwqqqqqqqqqqqqqqqqqqqqqqqqqqqqqqqqqqqqqqqqqqqqqqqqqqqiiiiiiiiiiiiiiiiiiiiii",
"iiiiiiiiiiiiiiiiiiiii+###################&-260wteew0qqqqqqqqqqqqqqqqqqqqqqqq0qqqqqqqqqqqqqqqqqqqqqqqqqqqqiiiiiiiiiiiiiiiiiiiiiii",
"iiiiiiiiiiiiiiiiiiii##############$###+$7qetewq0qqqqqqqqqqqqqqqqqqqqqqqqqqqqqqqqqqqqqqqqqqqqqqqqqqqqqqqqiiiiiiiiiiiiiiiiiiiiiiii",
"iiiiiiiiiiiiiiiiiii####################+1yqqqqqqqqqqqqqqqqqqqqq0qqqqqqqqqqqqqqqqqqqqqqqqqqqqqqqqqqqqqqqiiiiiiiiiiiiiiiiiiiiiiiii",
"iiiiiiiiiiiiiiiiiii#####################o4tqqqqqqqqqqqqqqqqqqqqqqqqqqqqqqqqqqqqqqqqqqqqqqqqqqqqqqqqqqqiiiiiiiiiiiiiiiiiiiiiiiiii",
"iiiiiiiiiiiiiiiiii######################O@7tqqqqqqqqqqqqqqqqqqqqqqqqqqqqqqqqqqqqqqqqqqqqqqqqqqqqqqqqiiiiiiiiiiiiiiiiiiiiiiiiiiii",
"iiiiiiiiiiiiiiiii########################O$0rqqqqqqqqqqqqqqqqqqqqqqqqqqqqqqqqqqqqqqqqqqqqqqqqqqqqqqiiiiiiiiiiiiiiiiiiiiiiiiiiiii",
"iiiiiiiiiiiiiiiii#########################O&qeqqqqqqqqqqqqqqqqqqqqqqqqqqqqqqqqqqqqqqqqqqqqqqqqqqqqiiiiiiiiiiiiiiiiiiiiiiiiiiiiii",
"iiiiiiiiiiiiiiii###########################o:twqqqqqqqqqqqqqqqqqqqqqqqqqqqqqqqqqqqqqqqqqqqqqqqqqiiiiiiiiiiiiiiiiiiiiiiiiiiiiiiii",
"iiiiiiiiiiiiiii##############################1eqqqqqqqqqqqqqqqqqqqqqqqqqqqqqqqqqqqqqqqqqqqqqqqqiiiiiiiiiiiiiiiiiiiiiiiiiiiiiiiii",
"iiiiiiiiiiiiiii###########################@+. <eqqqqqqqqqqqqqqqqqqqqqqqqqqqqqqqqqqqqqqqqqqqqqiiiiiiiiiiiiiiiiiiiiiiiiiiiiiiiiiii",
"iiiiiiiiiiiiii#########################@oO+&;<5qqqqqqqqqqqqqqqqqqqqqqqqqqqqqqqqqqqqqqqqqqqqqiiiiiiiiiiiiiiiiiiiiiiiiiiiiiiiiiiii",
"iiiiiiiiiiiii##########################$-15qrteqqqqqqqqqqqqqqqqqqqqqqqqqqqqqqqqqqqqqqqqqqqiiiiiiiiiiiiiiiiiiiiiiiiiiiiiiiiiiiiii",
"iiiiiiiiiiiii#########$###############iittrwqqqqqqqqqqqqqqqqqqqqqqqqqqqqqqqqqqqqqqqqqqqiiiiiiiiiiiiiiiiiiiiiiiiiiiiiiiiiiiiiiiii",
"iiiiiiiiiiii######################iiiiiiiiqqqqqqqqqqqqqqqqqqqqqqqqqqqqqqqqqqqqqqqqqqqiiiiiiiiiiiiiiiiiiiiiiiiiiiiiiiiiiiiiiiiiii",
"iiiiiiiiiii###################iiiiiiiiiiiiiiiqqqqqqqqqqqqqqqqqqqqqqqqqqqqqqqqqqqqqiiiiiiiiiiiiiiiiiiiiiiiiiiiiiiiiiiiiiiiiiiiiii",
"iiiiiiiiiii################iiiiiiiiiiiiiiiiiiiiiqqqqqqqqqqqqqqqqqqqqqqqqqqqqqqqiiiiiiiiiiiiiiiiiiiiiiiiiiiiiiiiiiiiiiiiiiiiiiiii",
"iiiiiiiiii#$###########iiiiiiiiiiiiiiiiiiiiiiiiiiiiiiqqqqqqqqqqqqqqqqqqqqqqiiiiiiiiiiiiiiiiiiiiiiiiiiiiiiiiiiiiiiiiiiiiiiiiiiiii",
"iiiiiiiii##########iiiiiiiiiiiiiiiiiiiiiiiiiiiiiiiiiiiiiiiiiiiqqqqiiiiiiiiiiiiiiiiiiiiiiiiiiiiiiiiiiiiiiiiiiiiiiiiiiiiiiiiiiiiii",
"iiiiiiiii######iiiiiiiiiiiiiiiiiiiiiiiiiiiiiiiiiiiiiiiiiiiiiiiiiiiiiiiiiiiiiiiiiiiiiiiiiiiiiiiiiiiiiiiiiiiiiiiiiiiiiiiiiiiiiiiii",
"iiiiiiii####iiiiiiiiiiiiiiiiiiiiiiiiiiiiiiiiiiiiiiiiiiiiiiiiiiiiiiiiiiiiiiiiiiiiiiiiiiiiiiiiiiiiiiiiiiiiiiiiiiiiiiiiiiiiiiiiiiii",
"iiiiiiii#iiiiiiiiiiiiiiiiiiiiiiiiiiiiiiiiiiiiiiiiiiiiiiiiiiiiiiiiiiiiiiiiiiiiiiiiiiiiiiiiiiiiiiiiiiiiiiiiiiiiiiiiiiiiiiiiiiiiiii",
"iiiiiiiiiiiiiiiiiiiiiiiiiiiiiiiiiiiiiiiiiiiiiiiiiiiiiiiiiiiiiiiiiiiiiiiiiiiiiiiiiiiiiiiiiiiiiiiiiiiiiiiiiiiiiiiiiiiiiiiiiiiiiiii",
"iiiiiiiiiiiiiiiiiiiiiiiiiiiiiiiiiiiiiiiiiiiiiiiiiiiiiiiiiiiiiiiiiiiiiiiiiiiiiiiiiiiiiiiiiiiiiiiiiiiiiiiiiiiiiiiiiiiiiiiiiiiiiiii"
};
