/* XPM */
static char *_297_e9ecc28e2dda854653ce2bbe463b42a266931628a7285e7b1b03691e173084b2[] = {
/* columns rows colors chars-per-pixel */
"16 16 115 2 ",
"   c #070019",
".  c #06031D",
"X  c #061525",
"o  c #051F29",
"O  c #05202A",
"+  c #05252C",
"@  c #05272D",
"#  c #05292E",
"$  c #052A2E",
"%  c #052B2F",
"&  c #042D2F",
"*  c #053031",
"=  c #053131",
"-  c #053132",
";  c #053232",
":  c #053433",
">  c #043634",
",  c #043A35",
"<  c #043A36",
"1  c #043B36",
"2  c #043C37",
"3  c #043D37",
"4  c #043F38",
"5  c #044038",
"6  c #044239",
"7  c #044339",
"8  c #04433A",
"9  c #04443A",
"0  c #04453A",
"q  c #04453B",
"w  c #04493C",
"e  c #044B3D",
"r  c #044C3D",
"t  c #044C3E",
"y  c #044D3E",
"u  c #045140",
"i  c #045240",
"p  c #035642",
"a  c #045642",
"s  c #035843",
"d  c #035A44",
"f  c #035B45",
"g  c #045F46",
"h  c #036A4B",
"j  c #036D4C",
"k  c #036F4D",
"l  c #036F4E",
"z  c #03704E",
"x  c #03744F",
"c  c #037450",
"v  c #037550",
"b  c #027751",
"n  c #037751",
"m  c #037851",
"M  c #027852",
"N  c #027C53",
"B  c #037C53",
"V  c #028155",
"C  c #028457",
"Z  c #028557",
"A  c #028A5A",
"S  c #01905C",
"D  c #02915C",
"F  c #02925D",
"G  c #02935E",
"H  c #029960",
"J  c #019C61",
"K  c #019D62",
"L  c #01A365",
"P  c #01A465",
"I  c #01A666",
"U  c #01A967",
"Y  c #01AD69",
"T  c #01AE69",
"R  c #01AF6A",
"E  c #01B36C",
"W  c #00BC70",
"Q  c #00BE71",
"!  c #00BF71",
"~  c #00C072",
"^  c #00C172",
"/  c #00C272",
"(  c #00C273",
")  c #00C373",
"_  c #00C473",
"`  c #00C474",
"'  c #00C574",
"]  c #00C674",
"[  c #00C775",
"{  c #00C875",
"}  c #00C975",
"|  c #00CA76",
" . c #00CB77",
".. c #00CD77",
"X. c #00CE78",
"o. c #00CF78",
"O. c #00D079",
"+. c #00D179",
"@. c #00D279",
"#. c #00D27A",
"$. c #00D37A",
"%. c #00D47B",
"&. c #00D77C",
"*. c #00D87C",
"=. c #00D97D",
"-. c #00DA7D",
";. c #00DB7E",
":. c #00DC7E",
">. c #00DD7F",
",. c #00DE7F",
"<. c #00E080",
"1. c #00E281",
"2. c #00E482",
"3. c #00EC85",
"4. c None",
/* pixels */
"4.4.4.4.4.4.) ~  .:.4.4.4.4.9 4.",
"4.4.4.4.) ) [ &.Q A n p 6 > $ 4.",
"4.4.4.#.>.&.| [ Z o + , ; s 4.4.",
"4.4.{ L C k e # @ u y % t | 4.4.",
"4.` ;.d   O q j Y P = f ! &.~ 4.",
"4.) +.J M U ] 3.<.8 a %.O.^ ) 4.",
"4.) ! X.,.$.O.;.s . I 2.( ) ) ) ",
"4.) ) ) ) ' <.c = N L o.' ) ) ) ",
"4.) ) ) / <.K X < b S ,.O.^ ) ) ",
"4.) / _ <.E % g H B x h V ..` 4.",
"4.) _ O.R w & v z 2 + . 4 X.} 4.",
"4.4.1.P - > 3 O o , i h G [ ' 4.",
"4.4.W w * 0 r l F T [ -.&.( 4.4.",
"4.4.7 1 : m @.=.:.#.{ ) ) 4.4.4.",
"4.4.3 5 < D *.' ( ) ) ) 4.4.4.4.",
"4.9 4.4.4.4.4.4.4.4.4.4.4.4.4.4."
};
