/* XPM */
static char *_6028_76ff2dab1661895674967479a32acf2db8bc2c664397f3067c6cadfe93d1cbee[] = {
/* columns rows colors chars-per-pixel */
"64 63 40 1 ",
"  c #051525",
". c #061D29",
"X c #05262D",
"o c #052B2F",
"O c #052E30",
"+ c #053433",
"@ c #043B36",
"# c #043F38",
"$ c #04443A",
"% c #044C3E",
"& c #04503F",
"* c #045341",
"= c #035B44",
"- c #036147",
"; c #036449",
": c #036C4C",
"> c #02714E",
", c #027550",
"< c #027C53",
"1 c #028356",
"2 c #028758",
"3 c #028C5A",
"4 c #02925D",
"5 c #019D62",
"6 c #01A365",
"7 c #01A967",
"8 c #01AD69",
"9 c #01B36C",
"0 c #00B96F",
"q c #00BE71",
"w c #00C373",
"e c #00CA76",
"r c #00CE78",
"t c #00D37A",
"y c #00DB7E",
"u c #00DF80",
"i c #00E281",
"p c #00EB85",
"a c #00F389",
"s c None",
/* pixels */
"ssssssssssssssssssssssssssssssssssssssssssssssssssssssssssssssss",
"ssssssssssssssssssssssssssssssssssssssssssssssssssssssssssssssss",
"sssssssssssssssssssssssssswwwwwwwwwwwsssssssssssssssssssssssssss",
"sssssssssssssssssssssswwwwwwwwwwwwwwwwwwwsssssssssssssss$$$$ssss",
"sssssssssssssssssssswwwwwwwwwwwwwwwwwwwwwwwssssssss$$$$$$$$sssss",
"sssssssssssssssssswwwwwwwwwwwwwwwwwwwwrtyytw9<@$$$$$$$$$$$ssssss",
"sssssssssssssssswwwwwwwwwwwwwwwwwetyytw94<=%@+$$$$$$$$$$$sssssss",
"ssssssssssssssswwwwwwwwwwwwwwwwwwq951;%#Oo+@$$$$$$$$$$$$ssssssss",
"ssssssssssssswwwwwwwwwwwwwwwwwwt8$++oO@@$$$$$$$$$$$$$$$sssssssss",
"sssssssssssswwwwwwwwwwwwwwwwwwwwr<X@$$$$$$$$$$$$$$$$$$$sssssssss",
"ssssssssssswwwwwwwwwwwwwwwwwwwwwta5@@$$$$$$$$$$$$$$$@Ossssssssss",
"sssssssssswwwwwwwwwwwwwwwwettyytq98*@$$$$$$$$$$$$$$+$sssssssssss",
"ssssssssswwwwwwwwwwwertyytw952,=%@+#$$$$$$$$$$$$$$@O6pssssssssss",
"sssssssswwwwwwwrttyte983<:*$@OO+@#$$$$$$$$$$$$$$$$X3uwwsssssssss",
"sssssssswwwwtyt085<:=$@OOO+##$$$$$$$$$$$$$$$$$@$$X:uewwwssssssss",
"ssssssswwwwt4:-%@+OO@@#$$$$$$$$$$$$$#@X@%$$$$@*=X*ttwwwwssssssss",
"sssssswwwwwy> +@@$$$$$$$$$$$$$$$#@Oo@*24$#$$@%3+@wyqwwwwwsssssss",
"sssssswwwwwy5+$$$$$$$$$$$$$$$@OO+*:36tp:+$$$X5< 8uwwwwwwwwssssss",
"ssssswwwwwwr9$@$$$$$$$$$$@+O+$;26wtuyi,X$$$X:eo3uwwwwwwwwwssssss",
"ssssswwwwwwew=+$$$$$$@+o+$=<5qtutewwi3X$$$@@u<=iwwwwwwwwwwssssss",
"sssswwwwwwwwy:O$$#+OO#=,59tyyrwwwwwu7O@$$#o6t:wrwwwwwwwwwwwsssss",
"sssswwwwwwwwy2XOO@*,49eyyrwwwwwwwwyq#+$$%X,p89twwwwwwwwwwwwsssss",
"sssswwwwwwwwt6$;38wyytwwwwwwwwwwwrt*o$$$O%rrwrqwwwwwwwwwwwwwssss",
"ssswwwwwwwwwwwwtytewwwwwwwwwwwwweu:X$$$@+9yqwwwwwwwwwwwwwwwwssss",
"ssswwwwwwwwwwwrwwwwwwwwwwwwwwwwwu3X$$$$O3iwwwwwwwwwwwwwwwwwwssss",
"ssswwwwwwwwwwwwwwwwwwwwwwwwwwwwy6o@$$$+=tewwwwwwwwwwwwwwwwwwssss",
"ssswwwwwwwwwwwwwwwwwwwwwwwwwwqyq@+%$$$@*wrwwwwwwwwwwwwwwwwwwwsss",
"sswwwwwwwwwwwwwwwwwwwwwwwwwwwrt*o$$$$$#+5ywwwwwwwwwwwwwwwwwwwsss",
"sswwwwwwwwwwwwwwwwwwwwwwwwwwey;o%$$$##@.:uwwwwwwwwwwwwwwwwwwwsss",
"sswwwwwwwwwwwwwwwwwwwwwwwwwwi2X$$$$+@#%$,rwwwwwwwwwwwwwwwwwwwsss",
"sswwwwwwwwwwwwwwwwwwwwwwwwwu6o@$$$o:q80etrwwwwwwwwwwwwwwwwwwwsss",
"sswwwwwwwwwwwwwwwwwwwwwwwqyq@+$$%O%tapitq9wwwwwwwwwwwwwwwwwwwsss",
"sswwwwwwwwwwwwwwwwwwwwwwwtr%o$$$@@9u64,-@=rwwwwwwwwwwwwwwwwwwsss",
"sswwwwwwwwwwwwwwwwwwwwwwey;o$$$$#*:*@oOOo$qrwwwwwwwwwwwwwwwwwsss",
"sswwwwwwwwwwwwwwwwwwwwwwy2X$$$$$$#++#$$@oX6twwwwwwwwwwwwwwwwwsss",
"ssswwwwwwwwwwwwwwwwwwwwy6o$$$$$$$$$@Oo@%:3wrwwweyrqwwwwwwwwwwsss",
"ssswwwwwwwwwwwwwwwwwwqy0++$$$$$@Oo+%:27tppwqrtyr57rwwwwwwwwwwsss",
"ssswwwwwwwwwwwwwwwwwwtr%O$$$$@+$;16wuapq4=&er6<*.<ywwwwwwwwwssss",
"ssswwwwwwwwwwwwwwwwwry;o$$$%O&80tpau03;$oo$:*+o+o>ywwwwwwwwwssss",
"ssswwwwwwwwwwwwwwwwwy1X$$$$+@wait93;#oO@$$$O+$$$O;rewwwwwwwwssss",
"sssswwwwwwwwwwwwt85p5o@$$$@+0a93;#oO@$$$$$$$$$$$@*wewwwwwwwwssss",
"sssswwwwwwwwwwwrw>tq+@$$$$@,7-$oO$$$$$$$$$$$$$$$@%qewwwwwwwsssss",
"sssswwwwwwwwwwwy;<i$+$$$$$$%Oo@$$$$$$$$$$$$$$$$$@$9twwwwwwwsssss",
"ssssswwwwwwwwwy8O9<X$$$$$$$$$$$$$$$$$$$$$$$$$$$$#+6twwwwwwssssss",
"ssssswwwwwwwwrt%$>+$$$$$$$$$$$$$$$$$$$$$$$$$$@@ooX4ywwwwwwssssss",
"sssssswwwwwwwy<X$@$$$$$$$$$$$$$$$$$$$$$$$$@oo@&:37wwwwwwwsssssss",
"sssssswwwwwwy8+@$$$$$$$$$$$$$$$$$$$$$$+oo@%:38wtutwwwwwwwsssssss",
"ssssssswwwwrr&O$$$$$$$$$$$$$$$$$$$+Oo@&>38wyytrwwwwwwwwwssssssss",
"sssssssswwwi<X$$$$$$$$$$$$$$$$+oo@*>38wyytewwwwwwwwwwwwsssssssss",
"ssssssssswy7o@$$$$$$$$$$$#+oo@*>39wyytewwwwwwwwwwwwwwwwsssssssss",
"sssssssssit%+$$$$$$$$#@oO#*,48etytewwwwwwwwwwwwwwwwwwwssssssssss",
"ssssssssss;+$$$$$$$@O#*,48etytewwwwwwwwwwwwwwwwwwwwwwsssssssssss",
"ssssssssss+%$$$$$$@=79wyytewwwwwwwwwwwwwwwwwwwwwwwwwssssssssssss",
"sssssssss$$$$$$$$$@$wpwwwwwwwwwwwwwwwwwwwwwwwwwwwwwsssssssssssss",
"ssssssss$$$$$$$$$$$+$wtwwwwwwwwwwwwwwwwwwwwwwwwwwwssssssssssssss",
"ssssssss$$$$$$$$$$$$o*rrwwwwwwwwwwwwwwwwwwwwwwwwssssssssssssssss",
"sssssss$$$$$$$$$$$%@o -rewwwwwwwwwwwwwwwwwwwwwwsssssssssssssssss",
"ssssss$$$$$$$$$$$$#%>36wwwwwwwwwwwwwwwwwwwwwwsssssssssssssssssss",
"ssssss$$$$$$$$$$$ssspytwwwwwwwwwwwwwwwwwwwwsssssssssssssssssssss",
"sssss$$$$$$$$$ssssssssswwwwwwwwwwwwwwwwwssssssssssssssssssssssss",
"ssss$$$$$$sssssssssssssssssswwwwwwwwssssssssssssssssssssssssssss",
"ssss$$ssssssssssssssssssssssssssssssssssssssssssssssssssssssssss",
"ssssssssssssssssssssssssssssssssssssssssssssssssssssssssssssssss"
};
