/* XPM */
static char *_057_9a3f08c1713b610da2df2a7403a531448ff8e25e1d0eeeb46164f90066668e4e[] = {
/* columns rows colors chars-per-pixel */
"32 32 195 2 ",
"   c #051625",
".  c #061826",
"X  c #051D29",
"o  c #061E29",
"O  c #05212A",
"+  c #05222B",
"@  c #05272D",
"#  c #05282D",
"$  c #05292E",
"%  c #052A2E",
"&  c #052A2F",
"*  c #052B2F",
"=  c #052C2F",
"-  c #052D2F",
";  c #052D30",
":  c #052E30",
">  c #052F30",
",  c #052E31",
"<  c #043031",
"1  c #053031",
"2  c #053131",
"3  c #053132",
"4  c #053232",
"5  c #043332",
"6  c #053332",
"7  c #043333",
"8  c #043433",
"9  c #053433",
"0  c #043533",
"q  c #043434",
"w  c #043634",
"e  c #053634",
"r  c #043734",
"t  c #053734",
"y  c #043735",
"u  c #053735",
"i  c #043835",
"p  c #043935",
"a  c #043A36",
"s  c #043B36",
"d  c #053B36",
"f  c #043C36",
"g  c #053C36",
"h  c #043C37",
"j  c #043D37",
"k  c #043E37",
"l  c #053E37",
"z  c #043F37",
"x  c #043E38",
"c  c #043F38",
"v  c #044038",
"b  c #044138",
"n  c #044139",
"m  c #044239",
"M  c #044339",
"N  c #04423A",
"B  c #04433A",
"V  c #05433A",
"C  c #04443A",
"Z  c #04453A",
"A  c #04453B",
"S  c #04463B",
"D  c #04473B",
"F  c #044A3D",
"G  c #044B3D",
"H  c #044D3E",
"J  c #044E3E",
"K  c #044F3F",
"L  c #045040",
"P  c #045140",
"I  c #045240",
"U  c #045341",
"Y  c #045441",
"T  c #045442",
"R  c #045542",
"E  c #045642",
"W  c #045743",
"Q  c #035843",
"!  c #045844",
"~  c #045A44",
"^  c #045B45",
"/  c #035E46",
"(  c #035F46",
")  c #035F47",
"_  c #045E46",
"`  c #046047",
"'  c #036248",
"]  c #036549",
"[  c #03684A",
"{  c #036A4B",
"}  c #036D4D",
"|  c #036E4D",
" . c #036F4E",
".. c #03704E",
"X. c #03714E",
"o. c #03734F",
"O. c #037450",
"+. c #037650",
"@. c #037751",
"#. c #037852",
"$. c #027C53",
"%. c #027F55",
"&. c #028055",
"*. c #028156",
"=. c #028357",
"-. c #028457",
";. c #028557",
":. c #028658",
">. c #028758",
",. c #028959",
"<. c #028A59",
"1. c #028C5A",
"2. c #028C5B",
"3. c #028E5B",
"4. c #028F5C",
"5. c #02915D",
"6. c #02935D",
"7. c #02925E",
"8. c #02935E",
"9. c #02945E",
"0. c #02965F",
"q. c #029960",
"w. c #029961",
"e. c #019D62",
"r. c #029C62",
"t. c #019E63",
"y. c #029F63",
"u. c #019F64",
"i. c #01A565",
"p. c #01A666",
"a. c #01A767",
"s. c #01A867",
"d. c #01A968",
"f. c #01AB68",
"g. c #01AB69",
"h. c #01AC69",
"j. c #01AD69",
"k. c #01AE6A",
"l. c #01B06B",
"z. c #01B16B",
"x. c #01B36C",
"c. c #01B46C",
"v. c #01B56D",
"b. c #01B66D",
"n. c #01B76E",
"m. c #00B86E",
"M. c #01B96F",
"N. c #01BC70",
"B. c #00C072",
"V. c #00C172",
"C. c #00C272",
"Z. c #00C273",
"A. c #01C273",
"S. c #00C373",
"D. c #00C473",
"F. c #00C474",
"G. c #00C574",
"H. c #00C674",
"J. c #00C675",
"K. c #00C775",
"L. c #01C775",
"P. c #00C875",
"I. c #00C976",
"U. c #00CA76",
"Y. c #00CB76",
"T. c #00CB77",
"R. c #00CC77",
"E. c #00CD78",
"W. c #00CE78",
"Q. c #00CF78",
"!. c #00CF79",
"~. c #00D079",
"^. c #00D179",
"/. c #00D17A",
"(. c #00D27A",
"). c #00D37A",
"_. c #00D47A",
"`. c #00D47B",
"'. c #00D57B",
"]. c #00D67C",
"[. c #00D77C",
"{. c #00D87D",
"}. c #00D97D",
"|. c #00DA7D",
" X c #00DA7E",
".X c #00DB7E",
"XX c #00DC7E",
"oX c #00DD7F",
"OX c #00DE7F",
"+X c #00DF80",
"@X c #00E080",
"#X c #00E181",
"$X c #00E382",
"%X c #00E482",
"&X c None",
/* pixels */
"&X&X&X&X&X&X&X&X&X&X&X&X&X&X&X&X&X&X&X&X&X&X&X&X&X&X&X&X&X&X&X&X",
"&X&X&X&X&X&X&X&X&X&X&X&X&XS.S.S.S.S.S.S.S.&X&X&X&X&X&X&X&X&XC &X",
"&X&X&X&X&X&X&X&X&X&XS.S.S.S.S.S.V.K.(.}..X`.E.&X&Xc C C C C &X&X",
"&X&X&X&X&X&X&X&X&XS.S.S.S.S.S.S.H.m.k.e.-.{ P c m C C C C &X&X&X",
"&X&X&X&X&X&X&XS.S.S.S.S.S.S.S.D.}.d.d : = : r c Z C D r * &X&X&X",
"&X&X&X&X&X&XS.S.S.S.H.T.).}..X].E.L.[ 6 C C C C C D 4 I &X&X&X&X",
"&X&X&X&X&XS.V.(.oX}.!.V.k.w.:.X.~ G F B n M Z M B 6 k A.&X&X&X&X",
"&X&X&X&X&XD.K.i.<.@.' K j 4 = : 5 5 : $ n G C b x 1 j.OXC.&X&X&X",
"&X&X&X&XS.G.[.( . = 3 p z j 8 * 1 C / q.0.V < R T 5.+XZ.S.S.&X&X",
"&X&X&X&XS.S.XX;.* n w = : v ! #.w.b.#X%X` , f %.6. XG.Z.S.S.&X&X",
"&X&X&XS.S.S.}.t.o u U o.9.x.T. X}.|.|.W % % =.G.B.T.C.S.S.S.S.&X",
"&X&X&XS.S.S.U.m.>.a.K.}..X^.P.Z.H.@X+.# 7 E ^.(.P.V.S.S.S.S.S.&X",
"&X&X&XS.S.S.B.P.XX'.I.S.S.S.S.C.#X0.# s j v.}.V.S.S.S.S.S.S.S.&X",
"&X&XS.S.S.S.S.S.S.S.S.S.S.S.B.XXx.6 i i q z.(.S.S.S.S.S.S.S.S.&X",
"&X&XS.S.S.S.S.S.S.S.S.S.S.V._.T.A 2 s N k e.}.Z.S.S.S.S.S.S.S.S.",
"&X&XS.S.S.S.S.S.S.S.S.S.V.R. X) $ 9 *..XG.M.G.S.S.S.S.S.S.S.S.S.",
"&X&XS.S.S.S.S.S.S.S.S.Z.K.@X$.@ n B 1.1.Q a z.~.S.D.S.S.S.S.S.S.",
"&X&XS.S.S.S.S.S.S.S.S.Z.@X4.$ b k w X   r { F.{.XX`.C.Z.S.S.S.S.",
"&X&X&XS.S.S.S.S.S.D.C.oXg.: j t h ] 7.c.N.y.s.F.,.&.J.G.S.S.S.&X",
"&X&X&XS.S.S.S.S.S.G.'.H.x 9 9 } ].^.n.2.( 1 m L + g S.T.S.S.S.&X",
"&X&X&XS.S.S.S.V.^.N.B._ = m S r.8.I 2 % w Z j i k B v.Q.S.S.S.&X",
"&X&X&XS.S.S.C.T.H.3...& A m J n # r M Z C C C v 5 O u.[.S.S.&X&X",
"&X&X&X&XS.S.S.#X&.e n v Z Z m b Z C C c r - = s U { l.W.S.S.&X&X",
"&X&X&X&XS.B.oXs.> y v A C C C v w = ; h I  .3.h.J.}.Y.B.S.&X&X&X",
"&X&X&X&X&X$X!.A 3 S Z c 0 = ; s Y X.5.k.G.[.XX`.I.D.S.S.S.&X&X&X",
"&X&X&X&X&X&X| = S B A Z U O.4.j.K.{.XX).U.D.S.S.S.S.S.S.&X&X&X&X",
"&X&X&X&X&X&Xr Z C c l f.}.[.XX_.I.S.S.S.S.S.S.S.S.S.S.&X&X&X&X&X",
"&X&X&X&X&Xn B C C S 3 ^ I.T.S.S.S.S.S.S.S.S.S.S.S.S.&X&X&X&X&X&X",
"&X&X&X&XC C C C C m Z H p./.S.S.S.S.S.S.S.S.S.S.&X&X&X&X&X&X&X&X",
"&X&X&X&XC C C C C &X&X&XU.V.S.S.S.S.S.S.S.S.&X&X&X&X&X&X&X&X&X&X",
"&X&X&XC C &X&X&X&X&X&X&X&X&X&X&X&X&X&X&X&X&X&X&X&X&X&X&X&X&X&X&X",
"&X&X&X&X&X&X&X&X&X&X&X&X&X&X&X&X&X&X&X&X&X&X&X&X&X&X&X&X&X&X&X&X"
};
